%TF.GenerationSoftware,KiCad,Pcbnew,(6.99.0-3975-g9eb3854794)*%
%TF.CreationDate,2022-10-19T18:21:51+02:00*%
%TF.ProjectId,PCB Template,50434220-5465-46d7-906c-6174652e6b69,rev?*%
%TF.SameCoordinates,Original*%
%TF.FileFunction,Legend,Top*%
%TF.FilePolarity,Positive*%
%FSLAX46Y46*%
G04 Gerber Fmt 4.6, Leading zero omitted, Abs format (unit mm)*
G04 Created by KiCad (PCBNEW (6.99.0-3975-g9eb3854794)) date 2022-10-19 18:21:51*
%MOMM*%
%LPD*%
G01*
G04 APERTURE LIST*
%ADD10C,0.150000*%
%ADD11C,0.100000*%
%ADD12C,1.750000*%
%ADD13C,3.987800*%
%ADD14R,1.600000X1.600000*%
%ADD15C,1.600000*%
G04 APERTURE END LIST*
D10*
%TO.C,U1*%
X117506845Y-56517380D02*
X117506845Y-57326904D01*
X117506845Y-57326904D02*
X117554464Y-57422142D01*
X117554464Y-57422142D02*
X117602083Y-57469761D01*
X117602083Y-57469761D02*
X117697321Y-57517380D01*
X117697321Y-57517380D02*
X117887797Y-57517380D01*
X117887797Y-57517380D02*
X117983035Y-57469761D01*
X117983035Y-57469761D02*
X118030654Y-57422142D01*
X118030654Y-57422142D02*
X118078273Y-57326904D01*
X118078273Y-57326904D02*
X118078273Y-56517380D01*
X119078273Y-57517380D02*
X118506845Y-57517380D01*
X118792559Y-57517380D02*
X118792559Y-56517380D01*
X118792559Y-56517380D02*
X118697321Y-56660238D01*
X118697321Y-56660238D02*
X118602083Y-56755476D01*
X118602083Y-56755476D02*
X118506845Y-56803095D01*
X118242083Y-69662666D02*
X118242083Y-68962666D01*
X118242083Y-68962666D02*
X118475417Y-69462666D01*
X118475417Y-69462666D02*
X118708750Y-68962666D01*
X118708750Y-68962666D02*
X118708750Y-69662666D01*
X119042083Y-69296000D02*
X119275417Y-69296000D01*
X119375417Y-69662666D02*
X119042083Y-69662666D01*
X119042083Y-69662666D02*
X119042083Y-68962666D01*
X119042083Y-68962666D02*
X119375417Y-68962666D01*
X120042083Y-68996000D02*
X119975416Y-68962666D01*
X119975416Y-68962666D02*
X119875416Y-68962666D01*
X119875416Y-68962666D02*
X119775416Y-68996000D01*
X119775416Y-68996000D02*
X119708750Y-69062666D01*
X119708750Y-69062666D02*
X119675416Y-69129333D01*
X119675416Y-69129333D02*
X119642083Y-69262666D01*
X119642083Y-69262666D02*
X119642083Y-69362666D01*
X119642083Y-69362666D02*
X119675416Y-69496000D01*
X119675416Y-69496000D02*
X119708750Y-69562666D01*
X119708750Y-69562666D02*
X119775416Y-69629333D01*
X119775416Y-69629333D02*
X119875416Y-69662666D01*
X119875416Y-69662666D02*
X119942083Y-69662666D01*
X119942083Y-69662666D02*
X120042083Y-69629333D01*
X120042083Y-69629333D02*
X120075416Y-69596000D01*
X120075416Y-69596000D02*
X120075416Y-69362666D01*
X120075416Y-69362666D02*
X119942083Y-69362666D01*
X120342083Y-69462666D02*
X120675416Y-69462666D01*
X120275416Y-69662666D02*
X120508750Y-68962666D01*
X120508750Y-68962666D02*
X120742083Y-69662666D01*
X120908750Y-68962666D02*
X121342083Y-68962666D01*
X121342083Y-68962666D02*
X121108750Y-69229333D01*
X121108750Y-69229333D02*
X121208750Y-69229333D01*
X121208750Y-69229333D02*
X121275416Y-69262666D01*
X121275416Y-69262666D02*
X121308750Y-69296000D01*
X121308750Y-69296000D02*
X121342083Y-69362666D01*
X121342083Y-69362666D02*
X121342083Y-69529333D01*
X121342083Y-69529333D02*
X121308750Y-69596000D01*
X121308750Y-69596000D02*
X121275416Y-69629333D01*
X121275416Y-69629333D02*
X121208750Y-69662666D01*
X121208750Y-69662666D02*
X121008750Y-69662666D01*
X121008750Y-69662666D02*
X120942083Y-69629333D01*
X120942083Y-69629333D02*
X120908750Y-69596000D01*
X121608750Y-69029333D02*
X121642083Y-68996000D01*
X121642083Y-68996000D02*
X121708750Y-68962666D01*
X121708750Y-68962666D02*
X121875417Y-68962666D01*
X121875417Y-68962666D02*
X121942083Y-68996000D01*
X121942083Y-68996000D02*
X121975417Y-69029333D01*
X121975417Y-69029333D02*
X122008750Y-69096000D01*
X122008750Y-69096000D02*
X122008750Y-69162666D01*
X122008750Y-69162666D02*
X121975417Y-69262666D01*
X121975417Y-69262666D02*
X121575417Y-69662666D01*
X121575417Y-69662666D02*
X122008750Y-69662666D01*
X122308750Y-68962666D02*
X122308750Y-69529333D01*
X122308750Y-69529333D02*
X122342084Y-69596000D01*
X122342084Y-69596000D02*
X122375417Y-69629333D01*
X122375417Y-69629333D02*
X122442084Y-69662666D01*
X122442084Y-69662666D02*
X122575417Y-69662666D01*
X122575417Y-69662666D02*
X122642084Y-69629333D01*
X122642084Y-69629333D02*
X122675417Y-69596000D01*
X122675417Y-69596000D02*
X122708750Y-69529333D01*
X122708750Y-69529333D02*
X122708750Y-68962666D01*
X123342083Y-69196000D02*
X123342083Y-69662666D01*
X123175417Y-68929333D02*
X123008750Y-69429333D01*
X123008750Y-69429333D02*
X123442083Y-69429333D01*
X101758750Y-64452500D02*
X110648750Y-64452500D01*
X101758750Y-72072500D02*
X101758750Y-64452500D01*
X103028750Y-59372500D02*
X133508750Y-59372500D01*
X103028750Y-77152500D02*
X103028750Y-59372500D01*
X110648750Y-64452500D02*
X110648750Y-72072500D01*
X110648750Y-72072500D02*
X101758750Y-72072500D01*
X116998750Y-64452500D02*
X116998750Y-72072500D01*
X116998750Y-72072500D02*
X124618750Y-72072500D01*
X124618750Y-64452500D02*
X116998750Y-64452500D01*
X124618750Y-72072500D02*
X124618750Y-64452500D01*
X127158750Y-65722500D02*
X127158750Y-68262500D01*
X127158750Y-68262500D02*
X127158750Y-69532500D01*
X127158750Y-69532500D02*
X130968750Y-69532500D01*
X127158750Y-70802500D02*
X127158750Y-73342500D01*
X127158750Y-73342500D02*
X130968750Y-73342500D01*
X130968750Y-65722500D02*
X127158750Y-65722500D01*
X130968750Y-69532500D02*
X130968750Y-65722500D01*
X130968750Y-70802500D02*
X127158750Y-70802500D01*
X130968750Y-73342500D02*
X130968750Y-70802500D01*
X133508750Y-59372500D02*
X133508750Y-77152500D01*
X133508750Y-77152500D02*
X103028750Y-77152500D01*
G36*
X122586750Y-67754500D02*
G01*
X118903750Y-67754500D01*
X118903750Y-67500500D01*
X122713750Y-67500500D01*
X122586750Y-67754500D01*
G37*
D11*
X122586750Y-67754500D02*
X118903750Y-67754500D01*
X118903750Y-67500500D01*
X122713750Y-67500500D01*
X122586750Y-67754500D01*
G36*
X122332750Y-67119500D02*
G01*
X122840750Y-67119500D01*
X122713750Y-67373500D01*
X122078750Y-67373500D01*
X122078750Y-66357500D01*
X122332750Y-66357500D01*
X122332750Y-67119500D01*
G37*
X122332750Y-67119500D02*
X122840750Y-67119500D01*
X122713750Y-67373500D01*
X122078750Y-67373500D01*
X122078750Y-66357500D01*
X122332750Y-66357500D01*
X122332750Y-67119500D01*
G36*
X119665750Y-67373500D02*
G01*
X119411750Y-67373500D01*
X119411750Y-66611500D01*
X119157750Y-67373500D01*
X118903750Y-67373500D01*
X119284750Y-66357500D01*
X119665750Y-66357500D01*
X119665750Y-67373500D01*
G37*
X119665750Y-67373500D02*
X119411750Y-67373500D01*
X119411750Y-66611500D01*
X119157750Y-67373500D01*
X118903750Y-67373500D01*
X119284750Y-66357500D01*
X119665750Y-66357500D01*
X119665750Y-67373500D01*
G36*
X122332750Y-66230500D02*
G01*
X120046750Y-66230500D01*
X120046750Y-67373500D01*
X119792750Y-67373500D01*
X119792750Y-66230500D01*
X119284750Y-66230500D01*
X119411750Y-65976500D01*
X122332750Y-65976500D01*
X122332750Y-66230500D01*
G37*
X122332750Y-66230500D02*
X120046750Y-66230500D01*
X120046750Y-67373500D01*
X119792750Y-67373500D01*
X119792750Y-66230500D01*
X119284750Y-66230500D01*
X119411750Y-65976500D01*
X122332750Y-65976500D01*
X122332750Y-66230500D01*
G36*
X121189750Y-67373500D02*
G01*
X120935750Y-67373500D01*
X120935750Y-66611500D01*
X120808750Y-66611500D01*
X120808750Y-67373500D01*
X120554750Y-67373500D01*
X120554750Y-66611500D01*
X120427750Y-66611500D01*
X120427750Y-67373500D01*
X120173750Y-67373500D01*
X120173750Y-66357500D01*
X121189750Y-66357500D01*
X121189750Y-67373500D01*
G37*
X121189750Y-67373500D02*
X120935750Y-67373500D01*
X120935750Y-66611500D01*
X120808750Y-66611500D01*
X120808750Y-67373500D01*
X120554750Y-67373500D01*
X120554750Y-66611500D01*
X120427750Y-66611500D01*
X120427750Y-67373500D01*
X120173750Y-67373500D01*
X120173750Y-66357500D01*
X121189750Y-66357500D01*
X121189750Y-67373500D01*
G36*
X121951750Y-66611500D02*
G01*
X121570750Y-66611500D01*
X121570750Y-66738500D01*
X121951750Y-66738500D01*
X121951750Y-66992500D01*
X121570750Y-66992500D01*
X121570750Y-67119500D01*
X121951750Y-67119500D01*
X121951750Y-67373500D01*
X121316750Y-67373500D01*
X121316750Y-66357500D01*
X121951750Y-66357500D01*
X121951750Y-66611500D01*
G37*
X121951750Y-66611500D02*
X121570750Y-66611500D01*
X121570750Y-66738500D01*
X121951750Y-66738500D01*
X121951750Y-66992500D01*
X121570750Y-66992500D01*
X121570750Y-67119500D01*
X121951750Y-67119500D01*
X121951750Y-67373500D01*
X121316750Y-67373500D01*
X121316750Y-66357500D01*
X121951750Y-66357500D01*
X121951750Y-66611500D01*
%TD*%
%LPC*%
D12*
%TO.C,MX4*%
X106838750Y-106362500D03*
D13*
X111918750Y-106362500D03*
D12*
X116998750Y-106362500D03*
%TD*%
%TO.C,MX9*%
X144938750Y-125412500D03*
D13*
X150018750Y-125412500D03*
D12*
X155098750Y-125412500D03*
%TD*%
%TO.C,MX7*%
X106838750Y-125412500D03*
D13*
X111918750Y-125412500D03*
D12*
X116998750Y-125412500D03*
%TD*%
D14*
%TO.C,U1*%
X104298749Y-75882499D03*
D15*
X106838750Y-75882500D03*
X109378750Y-75882500D03*
X111918750Y-75882500D03*
X114458750Y-75882500D03*
X116998750Y-75882500D03*
X119538750Y-75882500D03*
X122078750Y-75882500D03*
X124618750Y-75882500D03*
X127158750Y-75882500D03*
X129698750Y-75882500D03*
X132238750Y-75882500D03*
X132238750Y-73342500D03*
X132238750Y-70802500D03*
X132238750Y-68262500D03*
X132238750Y-65722500D03*
X132238750Y-63182500D03*
X132238750Y-60642500D03*
X129698750Y-60642500D03*
X127158750Y-60642500D03*
X124618750Y-60642500D03*
X122078750Y-60642500D03*
X119538750Y-60642500D03*
X116998750Y-60642500D03*
X114458750Y-60642500D03*
X111918750Y-60642500D03*
X109378750Y-60642500D03*
X106838750Y-60642500D03*
X104298750Y-60642500D03*
X114458750Y-73342500D03*
X114458750Y-63182500D03*
%TD*%
D12*
%TO.C,MX5*%
X125888750Y-106362500D03*
D13*
X130968750Y-106362500D03*
D12*
X136048750Y-106362500D03*
%TD*%
%TO.C,MX6*%
X144938750Y-106362500D03*
D13*
X150018750Y-106362500D03*
D12*
X155098750Y-106362500D03*
%TD*%
%TO.C,MX8*%
X125888750Y-125412500D03*
D13*
X130968750Y-125412500D03*
D12*
X136048750Y-125412500D03*
%TD*%
%TO.C,MX1*%
X106838750Y-87312500D03*
D13*
X111918750Y-87312500D03*
D12*
X116998750Y-87312500D03*
%TD*%
%TO.C,MX3*%
X144938750Y-87312500D03*
D13*
X150018750Y-87312500D03*
D12*
X155098750Y-87312500D03*
%TD*%
%TO.C,MX2*%
X125888750Y-87312500D03*
D13*
X130968750Y-87312500D03*
D12*
X136048750Y-87312500D03*
%TD*%
M02*
