%TF.GenerationSoftware,KiCad,Pcbnew,(6.99.0-3975-g9eb3854794)*%
%TF.CreationDate,2022-10-19T18:21:51+02:00*%
%TF.ProjectId,PCB Template,50434220-5465-46d7-906c-6174652e6b69,rev?*%
%TF.SameCoordinates,Original*%
%TF.FileFunction,Soldermask,Bot*%
%TF.FilePolarity,Negative*%
%FSLAX46Y46*%
G04 Gerber Fmt 4.6, Leading zero omitted, Abs format (unit mm)*
G04 Created by KiCad (PCBNEW (6.99.0-3975-g9eb3854794)) date 2022-10-19 18:21:51*
%MOMM*%
%LPD*%
G01*
G04 APERTURE LIST*
G04 Aperture macros list*
%AMHorizOval*
0 Thick line with rounded ends*
0 $1 width*
0 $2 $3 position (X,Y) of the first rounded end (center of the circle)*
0 $4 $5 position (X,Y) of the second rounded end (center of the circle)*
0 Add line between two ends*
20,1,$1,$2,$3,$4,$5,0*
0 Add two circle primitives to create the rounded ends*
1,1,$1,$2,$3*
1,1,$1,$4,$5*%
G04 Aperture macros list end*
%ADD10C,1.750000*%
%ADD11C,3.987800*%
%ADD12HorizOval,2.250000X0.655001X0.730000X-0.655001X-0.730000X0*%
%ADD13C,2.250000*%
%ADD14HorizOval,2.250000X0.020000X0.290000X-0.020000X-0.290000X0*%
%ADD15R,1.600000X1.600000*%
%ADD16C,1.600000*%
%ADD17R,1.200000X0.900000*%
G04 APERTURE END LIST*
D10*
%TO.C,MX4*%
X106838750Y-106362500D03*
D11*
X111918750Y-106362500D03*
D10*
X116998750Y-106362500D03*
D12*
X108763750Y-103092499D03*
D13*
X109418750Y-102362500D03*
D14*
X114438749Y-101572499D03*
D13*
X114458750Y-101282500D03*
%TD*%
D10*
%TO.C,MX9*%
X144938750Y-125412500D03*
D11*
X150018750Y-125412500D03*
D10*
X155098750Y-125412500D03*
D12*
X146863750Y-122142499D03*
D13*
X147518750Y-121412500D03*
D14*
X152538749Y-120622499D03*
D13*
X152558750Y-120332500D03*
%TD*%
D10*
%TO.C,MX7*%
X106838750Y-125412500D03*
D11*
X111918750Y-125412500D03*
D10*
X116998750Y-125412500D03*
D12*
X108763750Y-122142499D03*
D13*
X109418750Y-121412500D03*
D14*
X114438749Y-120622499D03*
D13*
X114458750Y-120332500D03*
%TD*%
D15*
%TO.C,U1*%
X104298749Y-75882499D03*
D16*
X106838750Y-75882500D03*
X109378750Y-75882500D03*
X111918750Y-75882500D03*
X114458750Y-75882500D03*
X116998750Y-75882500D03*
X119538750Y-75882500D03*
X122078750Y-75882500D03*
X124618750Y-75882500D03*
X127158750Y-75882500D03*
X129698750Y-75882500D03*
X132238750Y-75882500D03*
X132238750Y-73342500D03*
X132238750Y-70802500D03*
X132238750Y-68262500D03*
X132238750Y-65722500D03*
X132238750Y-63182500D03*
X132238750Y-60642500D03*
X129698750Y-60642500D03*
X127158750Y-60642500D03*
X124618750Y-60642500D03*
X122078750Y-60642500D03*
X119538750Y-60642500D03*
X116998750Y-60642500D03*
X114458750Y-60642500D03*
X111918750Y-60642500D03*
X109378750Y-60642500D03*
X106838750Y-60642500D03*
X104298750Y-60642500D03*
X114458750Y-73342500D03*
X114458750Y-63182500D03*
%TD*%
D10*
%TO.C,MX5*%
X125888750Y-106362500D03*
D11*
X130968750Y-106362500D03*
D10*
X136048750Y-106362500D03*
D12*
X127813750Y-103092499D03*
D13*
X128468750Y-102362500D03*
D14*
X133488749Y-101572499D03*
D13*
X133508750Y-101282500D03*
%TD*%
D10*
%TO.C,MX6*%
X144938750Y-106362500D03*
D11*
X150018750Y-106362500D03*
D10*
X155098750Y-106362500D03*
D12*
X146863750Y-103092499D03*
D13*
X147518750Y-102362500D03*
D14*
X152538749Y-101572499D03*
D13*
X152558750Y-101282500D03*
%TD*%
D10*
%TO.C,MX8*%
X125888750Y-125412500D03*
D11*
X130968750Y-125412500D03*
D10*
X136048750Y-125412500D03*
D12*
X127813750Y-122142499D03*
D13*
X128468750Y-121412500D03*
D14*
X133488749Y-120622499D03*
D13*
X133508750Y-120332500D03*
%TD*%
D10*
%TO.C,MX1*%
X106838750Y-87312500D03*
D11*
X111918750Y-87312500D03*
D10*
X116998750Y-87312500D03*
D12*
X108763750Y-84042499D03*
D13*
X109418750Y-83312500D03*
D14*
X114438749Y-82522499D03*
D13*
X114458750Y-82232500D03*
%TD*%
D10*
%TO.C,MX3*%
X144938750Y-87312500D03*
D11*
X150018750Y-87312500D03*
D10*
X155098750Y-87312500D03*
D12*
X146863750Y-84042499D03*
D13*
X147518750Y-83312500D03*
D14*
X152538749Y-82522499D03*
D13*
X152558750Y-82232500D03*
%TD*%
D10*
%TO.C,MX2*%
X125888750Y-87312500D03*
D11*
X130968750Y-87312500D03*
D10*
X136048750Y-87312500D03*
D12*
X127813750Y-84042499D03*
D13*
X128468750Y-83312500D03*
D14*
X133488749Y-82522499D03*
D13*
X133508750Y-82232500D03*
%TD*%
D17*
%TO.C,D6*%
X159538749Y-109362499D03*
X159538749Y-106062499D03*
%TD*%
%TO.C,D5*%
X140488749Y-109362499D03*
X140488749Y-106062499D03*
%TD*%
%TO.C,D7*%
X121438749Y-128412499D03*
X121438749Y-125112499D03*
%TD*%
%TO.C,D4*%
X121438749Y-109362499D03*
X121438749Y-106062499D03*
%TD*%
%TO.C,D2*%
X140488749Y-90312499D03*
X140488749Y-87012499D03*
%TD*%
%TO.C,D8*%
X140488749Y-128412499D03*
X140488749Y-125112499D03*
%TD*%
%TO.C,D9*%
X159538749Y-128412499D03*
X159538749Y-125112499D03*
%TD*%
%TO.C,D1*%
X121438749Y-90312499D03*
X121438749Y-87012499D03*
%TD*%
%TO.C,D3*%
X159538749Y-90312499D03*
X159538749Y-87012499D03*
%TD*%
M02*
