%TF.GenerationSoftware,KiCad,Pcbnew,(6.99.0-3975-g9eb3854794)*%
%TF.CreationDate,2022-10-20T17:26:06+02:00*%
%TF.ProjectId,PCB Template,50434220-5465-46d7-906c-6174652e6b69,rev?*%
%TF.SameCoordinates,Original*%
%TF.FileFunction,Paste,Bot*%
%TF.FilePolarity,Positive*%
%FSLAX46Y46*%
G04 Gerber Fmt 4.6, Leading zero omitted, Abs format (unit mm)*
G04 Created by KiCad (PCBNEW (6.99.0-3975-g9eb3854794)) date 2022-10-20 17:26:06*
%MOMM*%
%LPD*%
G01*
G04 APERTURE LIST*
G04 Aperture macros list*
%AMRoundRect*
0 Rectangle with rounded corners*
0 $1 Rounding radius*
0 $2 $3 $4 $5 $6 $7 $8 $9 X,Y pos of 4 corners*
0 Add a 4 corners polygon primitive as box body*
4,1,4,$2,$3,$4,$5,$6,$7,$8,$9,$2,$3,0*
0 Add four circle primitives for the rounded corners*
1,1,$1+$1,$2,$3*
1,1,$1+$1,$4,$5*
1,1,$1+$1,$6,$7*
1,1,$1+$1,$8,$9*
0 Add four rect primitives between the rounded corners*
20,1,$1+$1,$2,$3,$4,$5,0*
20,1,$1+$1,$4,$5,$6,$7,0*
20,1,$1+$1,$6,$7,$8,$9,0*
20,1,$1+$1,$8,$9,$2,$3,0*%
G04 Aperture macros list end*
%ADD10RoundRect,0.150000X-0.150000X-0.625000X0.150000X-0.625000X0.150000X0.625000X-0.150000X0.625000X0*%
%ADD11RoundRect,0.250000X-0.350000X-0.650000X0.350000X-0.650000X0.350000X0.650000X-0.350000X0.650000X0*%
%ADD12R,1.200000X0.900000*%
%ADD13RoundRect,0.250000X0.250000X0.475000X-0.250000X0.475000X-0.250000X-0.475000X0.250000X-0.475000X0*%
%ADD14RoundRect,0.250000X0.475000X-0.250000X0.475000X0.250000X-0.475000X0.250000X-0.475000X-0.250000X0*%
%ADD15RoundRect,0.250000X-0.250000X-0.475000X0.250000X-0.475000X0.250000X0.475000X-0.250000X0.475000X0*%
%ADD16RoundRect,0.250000X-0.475000X0.250000X-0.475000X-0.250000X0.475000X-0.250000X0.475000X0.250000X0*%
%ADD17RoundRect,0.250000X-0.262500X-0.450000X0.262500X-0.450000X0.262500X0.450000X-0.262500X0.450000X0*%
%ADD18RoundRect,0.250000X-0.275000X-0.275000X0.275000X-0.275000X0.275000X0.275000X-0.275000X0.275000X0*%
%ADD19R,1.500000X0.550000*%
%ADD20RoundRect,0.062500X-0.475000X-0.062500X0.475000X-0.062500X0.475000X0.062500X-0.475000X0.062500X0*%
%ADD21R,0.550000X1.500000*%
%ADD22RoundRect,0.062500X-0.062500X-0.475000X0.062500X-0.475000X0.062500X0.475000X-0.062500X0.475000X0*%
%ADD23RoundRect,0.055000X-0.055000X-0.482500X0.055000X-0.482500X0.055000X0.482500X-0.055000X0.482500X0*%
%ADD24RoundRect,0.250000X0.262500X0.450000X-0.262500X0.450000X-0.262500X-0.450000X0.262500X-0.450000X0*%
%ADD25RoundRect,0.250000X-0.450000X0.262500X-0.450000X-0.262500X0.450000X-0.262500X0.450000X0.262500X0*%
%ADD26R,1.400000X1.200000*%
G04 APERTURE END LIST*
D10*
%TO.C,J2*%
X108150000Y-66980000D03*
X109150000Y-66980000D03*
X110150000Y-66980000D03*
X111150000Y-66980000D03*
D11*
X106850000Y-63105000D03*
X112450000Y-63105000D03*
%TD*%
D12*
%TO.C,D6*%
X159538749Y-109362499D03*
X159538749Y-106062499D03*
%TD*%
D13*
%TO.C,C3*%
X123890000Y-67672500D03*
X121990000Y-67672500D03*
%TD*%
D14*
%TO.C,C2*%
X132550000Y-59402500D03*
X132550000Y-57502500D03*
%TD*%
D12*
%TO.C,D5*%
X140488749Y-109362499D03*
X140488749Y-106062499D03*
%TD*%
D15*
%TO.C,C7*%
X125440000Y-75692500D03*
X127340000Y-75692500D03*
%TD*%
D16*
%TO.C,C1*%
X126390000Y-57502500D03*
X126390000Y-59402500D03*
%TD*%
D13*
%TO.C,C6*%
X137340000Y-75692500D03*
X135440000Y-75692500D03*
%TD*%
D17*
%TO.C,R3*%
X122007500Y-71822500D03*
X123832500Y-71822500D03*
%TD*%
D18*
%TO.C,U1*%
X129440000Y-66060000D03*
X129440000Y-67360000D03*
X129440000Y-68660000D03*
X129440000Y-69960000D03*
X130740000Y-66060000D03*
X130740000Y-67360000D03*
X130740000Y-68660000D03*
X130740000Y-69960000D03*
X132040000Y-66060000D03*
X132040000Y-67360000D03*
X132040000Y-68660000D03*
X132040000Y-69960000D03*
X133340000Y-66060000D03*
X133340000Y-67360000D03*
X133340000Y-68660000D03*
X133340000Y-69960000D03*
D19*
X125689999Y-72009999D03*
D20*
X128052500Y-70510000D03*
D19*
X125689999Y-71209999D03*
D20*
X128052500Y-70010000D03*
D19*
X125689999Y-70409999D03*
D20*
X128052500Y-69510000D03*
D19*
X125689999Y-69609999D03*
D20*
X128052500Y-69010000D03*
D19*
X125689999Y-68809999D03*
D20*
X128052500Y-68510000D03*
D19*
X125689999Y-68009999D03*
D20*
X128052500Y-68010000D03*
D19*
X125689999Y-67209999D03*
D20*
X128052500Y-67510000D03*
D19*
X125689999Y-66409999D03*
D20*
X128052500Y-67010000D03*
D19*
X125689999Y-65609999D03*
D20*
X128052500Y-66510000D03*
D19*
X125689999Y-64809999D03*
D20*
X128052500Y-66010000D03*
D19*
X125689999Y-64009999D03*
D20*
X128052500Y-65510000D03*
D21*
X127389999Y-62309999D03*
D22*
X128890000Y-64672500D03*
D21*
X128189999Y-62309999D03*
D22*
X129390000Y-64672500D03*
D21*
X128989999Y-62309999D03*
D22*
X129890000Y-64672500D03*
D21*
X129789999Y-62309999D03*
D22*
X130390000Y-64672500D03*
D21*
X130589999Y-62309999D03*
D22*
X130890000Y-64672500D03*
D21*
X131389999Y-62309999D03*
D22*
X131390000Y-64672500D03*
X131890000Y-64672500D03*
D21*
X132189999Y-62309999D03*
D22*
X132390000Y-64672500D03*
D21*
X132989999Y-62309999D03*
D22*
X132890000Y-64672500D03*
D21*
X133789999Y-62309999D03*
D22*
X133390000Y-64672500D03*
D21*
X134589999Y-62309999D03*
D22*
X133890000Y-64672500D03*
D21*
X135389999Y-62309999D03*
D20*
X134727500Y-65510000D03*
D19*
X137089999Y-64009999D03*
D20*
X134727500Y-66010000D03*
D19*
X137089999Y-64809999D03*
D20*
X134727500Y-66510000D03*
D19*
X137089999Y-65609999D03*
D20*
X134727500Y-67010000D03*
D19*
X137089999Y-66409999D03*
D20*
X134727500Y-67510000D03*
D19*
X137089999Y-67209999D03*
D20*
X134727500Y-68010000D03*
D19*
X137089999Y-68009999D03*
D20*
X134727500Y-68510000D03*
D19*
X137089999Y-68809999D03*
D20*
X134727500Y-69010000D03*
D19*
X137089999Y-69609999D03*
D20*
X134727500Y-69510000D03*
D19*
X137089999Y-70409999D03*
D20*
X134727500Y-70010000D03*
D19*
X137089999Y-71209999D03*
D20*
X134727500Y-70510000D03*
D19*
X137089999Y-72009999D03*
D22*
X133890000Y-71347500D03*
D21*
X135389999Y-73709999D03*
D22*
X133390000Y-71347500D03*
D21*
X134589999Y-73709999D03*
D22*
X132890000Y-71347500D03*
D21*
X133789999Y-73709999D03*
D22*
X132390000Y-71347500D03*
D21*
X132989999Y-73709999D03*
D22*
X131890000Y-71347500D03*
D21*
X132189999Y-73709999D03*
D22*
X131390000Y-71347500D03*
D21*
X131389999Y-73709999D03*
X130589999Y-73709999D03*
D22*
X130890000Y-71347500D03*
D21*
X129789999Y-73709999D03*
D22*
X130390000Y-71347500D03*
D21*
X128989999Y-73709999D03*
D22*
X129890000Y-71347500D03*
D21*
X128189999Y-73709999D03*
D23*
X129390000Y-71347500D03*
D21*
X127389999Y-73709999D03*
D22*
X128890000Y-71347500D03*
%TD*%
D12*
%TO.C,D7*%
X121438749Y-128412499D03*
X121438749Y-125112499D03*
%TD*%
%TO.C,D4*%
X121438749Y-109362499D03*
X121438749Y-106062499D03*
%TD*%
D24*
%TO.C,R2*%
X123832500Y-69922500D03*
X122007500Y-69922500D03*
%TD*%
D12*
%TO.C,D2*%
X140488749Y-90312499D03*
X140488749Y-87012499D03*
%TD*%
%TO.C,D8*%
X140488749Y-128412499D03*
X140488749Y-125112499D03*
%TD*%
D25*
%TO.C,R4*%
X139040000Y-72120000D03*
X139040000Y-73945000D03*
%TD*%
D12*
%TO.C,D9*%
X159538749Y-128412499D03*
X159538749Y-125112499D03*
%TD*%
D14*
%TO.C,C5*%
X139110000Y-63952500D03*
X139110000Y-62052500D03*
%TD*%
D12*
%TO.C,D1*%
X121438749Y-90312499D03*
X121438749Y-87012499D03*
%TD*%
%TO.C,D3*%
X159538749Y-90312499D03*
X159538749Y-87012499D03*
%TD*%
D26*
%TO.C,Y1*%
X130569999Y-59302499D03*
X128369999Y-59302499D03*
X128369999Y-57602499D03*
X130569999Y-57602499D03*
%TD*%
D14*
%TO.C,C4*%
X124210000Y-59432500D03*
X124210000Y-57532500D03*
%TD*%
M02*
