%TF.GenerationSoftware,KiCad,Pcbnew,(6.99.0-3975-g9eb3854794)*%
%TF.CreationDate,2022-10-19T18:21:51+02:00*%
%TF.ProjectId,PCB Template,50434220-5465-46d7-906c-6174652e6b69,rev?*%
%TF.SameCoordinates,Original*%
%TF.FileFunction,Copper,L1,Top*%
%TF.FilePolarity,Positive*%
%FSLAX46Y46*%
G04 Gerber Fmt 4.6, Leading zero omitted, Abs format (unit mm)*
G04 Created by KiCad (PCBNEW (6.99.0-3975-g9eb3854794)) date 2022-10-19 18:21:51*
%MOMM*%
%LPD*%
G01*
G04 APERTURE LIST*
G04 Aperture macros list*
%AMHorizOval*
0 Thick line with rounded ends*
0 $1 width*
0 $2 $3 position (X,Y) of the first rounded end (center of the circle)*
0 $4 $5 position (X,Y) of the second rounded end (center of the circle)*
0 Add line between two ends*
20,1,$1,$2,$3,$4,$5,0*
0 Add two circle primitives to create the rounded ends*
1,1,$1,$2,$3*
1,1,$1,$4,$5*%
G04 Aperture macros list end*
%TA.AperFunction,ComponentPad*%
%ADD10HorizOval,2.250000X0.655001X0.730000X-0.655001X-0.730000X0*%
%TD*%
%TA.AperFunction,ComponentPad*%
%ADD11C,2.250000*%
%TD*%
%TA.AperFunction,ComponentPad*%
%ADD12HorizOval,2.250000X0.020000X0.290000X-0.020000X-0.290000X0*%
%TD*%
%TA.AperFunction,ComponentPad*%
%ADD13R,1.600000X1.600000*%
%TD*%
%TA.AperFunction,ComponentPad*%
%ADD14C,1.600000*%
%TD*%
%TA.AperFunction,Conductor*%
%ADD15C,0.250000*%
%TD*%
G04 APERTURE END LIST*
D10*
%TO.P,MX4,1,COL*%
%TO.N,COL0*%
X108763750Y-103092499D03*
D11*
X109418750Y-102362500D03*
D12*
%TO.P,MX4,2,ROW*%
%TO.N,Net-(D4-A)*%
X114438749Y-101572499D03*
D11*
X114458750Y-101282500D03*
%TD*%
D10*
%TO.P,MX9,1,COL*%
%TO.N,COL2*%
X146863750Y-122142499D03*
D11*
X147518750Y-121412500D03*
D12*
%TO.P,MX9,2,ROW*%
%TO.N,Net-(D9-A)*%
X152538749Y-120622499D03*
D11*
X152558750Y-120332500D03*
%TD*%
D10*
%TO.P,MX7,1,COL*%
%TO.N,COL0*%
X108763750Y-122142499D03*
D11*
X109418750Y-121412500D03*
D12*
%TO.P,MX7,2,ROW*%
%TO.N,Net-(D7-A)*%
X114438749Y-120622499D03*
D11*
X114458750Y-120332500D03*
%TD*%
D13*
%TO.P,U1,1,GND*%
%TO.N,unconnected-(U1-GND)_1*%
X104298749Y-75882499D03*
D14*
%TO.P,U1,2,PB0*%
%TO.N,COL0*%
X106838750Y-75882500D03*
%TO.P,U1,3,PB1*%
%TO.N,COL1*%
X109378750Y-75882500D03*
%TO.P,U1,4,PB2*%
%TO.N,COL2*%
X111918750Y-75882500D03*
%TO.P,U1,5,PB3*%
%TO.N,unconnected-(U1-PB3)*%
X114458750Y-75882500D03*
%TO.P,U1,6,PB7*%
%TO.N,unconnected-(U1-PB7)*%
X116998750Y-75882500D03*
%TO.P,U1,7,PD0*%
%TO.N,unconnected-(U1-PD0)*%
X119538750Y-75882500D03*
%TO.P,U1,8,PD1*%
%TO.N,unconnected-(U1-PD1)*%
X122078750Y-75882500D03*
%TO.P,U1,9,PD2*%
%TO.N,unconnected-(U1-PD2)*%
X124618750Y-75882500D03*
%TO.P,U1,10,PD3*%
%TO.N,unconnected-(U1-PD3)*%
X127158750Y-75882500D03*
%TO.P,U1,11,PC6*%
%TO.N,unconnected-(U1-PC6)*%
X129698750Y-75882500D03*
%TO.P,U1,12,PC7*%
%TO.N,ROW0*%
X132238750Y-75882500D03*
%TO.P,U1,13,PD5*%
%TO.N,ROW1*%
X132238750Y-73342500D03*
%TO.P,U1,14,VCC*%
%TO.N,unconnected-(U1-VCC)_1*%
X132238750Y-70802500D03*
%TO.P,U1,15,GND*%
%TO.N,unconnected-(U1-GND)*%
X132238750Y-68262500D03*
%TO.P,U1,16,RST*%
%TO.N,unconnected-(U1-RST)*%
X132238750Y-65722500D03*
%TO.P,U1,17,PD4*%
%TO.N,ROW2*%
X132238750Y-63182500D03*
%TO.P,U1,18,PD6*%
%TO.N,unconnected-(U1-PD6)*%
X132238750Y-60642500D03*
%TO.P,U1,19,PD7*%
%TO.N,unconnected-(U1-PD7)*%
X129698750Y-60642500D03*
%TO.P,U1,20,PB4*%
%TO.N,unconnected-(U1-PB4)*%
X127158750Y-60642500D03*
%TO.P,U1,21,PB5*%
%TO.N,unconnected-(U1-PB5)*%
X124618750Y-60642500D03*
%TO.P,U1,22,PB6*%
%TO.N,unconnected-(U1-PB6)*%
X122078750Y-60642500D03*
%TO.P,U1,23,PF7*%
%TO.N,unconnected-(U1-PF7)*%
X119538750Y-60642500D03*
%TO.P,U1,24,PF6*%
%TO.N,unconnected-(U1-PF6)*%
X116998750Y-60642500D03*
%TO.P,U1,25,PF5*%
%TO.N,unconnected-(U1-PF5)*%
X114458750Y-60642500D03*
%TO.P,U1,26,PF4*%
%TO.N,unconnected-(U1-PF4)*%
X111918750Y-60642500D03*
%TO.P,U1,27,PF1*%
%TO.N,unconnected-(U1-PF1)*%
X109378750Y-60642500D03*
%TO.P,U1,28,PF0*%
%TO.N,unconnected-(U1-PF0)*%
X106838750Y-60642500D03*
%TO.P,U1,29,VCC*%
%TO.N,unconnected-(U1-VCC)*%
X104298750Y-60642500D03*
%TO.P,U1,30,AREF*%
%TO.N,unconnected-(U1-AREF)*%
X114458750Y-73342500D03*
%TO.P,U1,31,PE6*%
%TO.N,unconnected-(U1-PE6)*%
X114458750Y-63182500D03*
%TD*%
D10*
%TO.P,MX5,1,COL*%
%TO.N,COL1*%
X127813750Y-103092499D03*
D11*
X128468750Y-102362500D03*
D12*
%TO.P,MX5,2,ROW*%
%TO.N,Net-(D5-A)*%
X133488749Y-101572499D03*
D11*
X133508750Y-101282500D03*
%TD*%
D10*
%TO.P,MX6,1,COL*%
%TO.N,COL2*%
X146863750Y-103092499D03*
D11*
X147518750Y-102362500D03*
D12*
%TO.P,MX6,2,ROW*%
%TO.N,Net-(D6-A)*%
X152538749Y-101572499D03*
D11*
X152558750Y-101282500D03*
%TD*%
D10*
%TO.P,MX8,1,COL*%
%TO.N,COL1*%
X127813750Y-122142499D03*
D11*
X128468750Y-121412500D03*
D12*
%TO.P,MX8,2,ROW*%
%TO.N,Net-(D8-A)*%
X133488749Y-120622499D03*
D11*
X133508750Y-120332500D03*
%TD*%
D10*
%TO.P,MX1,1,COL*%
%TO.N,COL0*%
X108763750Y-84042499D03*
D11*
X109418750Y-83312500D03*
D12*
%TO.P,MX1,2,ROW*%
%TO.N,Net-(D1-A)*%
X114438749Y-82522499D03*
D11*
X114458750Y-82232500D03*
%TD*%
D10*
%TO.P,MX3,1,COL*%
%TO.N,COL2*%
X146863750Y-84042499D03*
D11*
X147518750Y-83312500D03*
D12*
%TO.P,MX3,2,ROW*%
%TO.N,Net-(D3-A)*%
X152538749Y-82522499D03*
D11*
X152558750Y-82232500D03*
%TD*%
D10*
%TO.P,MX2,1,COL*%
%TO.N,COL1*%
X127813750Y-84042499D03*
D11*
X128468750Y-83312500D03*
D12*
%TO.P,MX2,2,ROW*%
%TO.N,Net-(D2-A)*%
X133488749Y-82522499D03*
D11*
X133508750Y-82232500D03*
%TD*%
D15*
%TO.N,COL0*%
X108108750Y-84772500D02*
X108743750Y-85407500D01*
X108743750Y-103187500D02*
X108108750Y-103822500D01*
X106838750Y-83502500D02*
X106838750Y-75882500D01*
X108743750Y-122237500D02*
X108108750Y-122872500D01*
X108743750Y-104457500D02*
X108743750Y-122237500D01*
X108108750Y-103822500D02*
X108743750Y-104457500D01*
X108743750Y-85407500D02*
X108743750Y-103187500D01*
X108108750Y-84772500D02*
X106838750Y-83502500D01*
%TO.N,COL1*%
X127158750Y-103822500D02*
X127793750Y-104457500D01*
X127158750Y-84772500D02*
X127793750Y-85407500D01*
X127793750Y-104457500D02*
X127793750Y-122237500D01*
X128468750Y-80843750D02*
X127793750Y-80168750D01*
X127793750Y-122237500D02*
X127158750Y-122872500D01*
X109378750Y-80010000D02*
X109378750Y-75882500D01*
X127793750Y-85407500D02*
X127793750Y-103187500D01*
X128468750Y-83312500D02*
X128468750Y-80843750D01*
X127793750Y-103187500D02*
X127158750Y-103822500D01*
X109537500Y-80168750D02*
X127793750Y-80168750D01*
X109537500Y-80168750D02*
X109378750Y-80010000D01*
%TO.N,COL2*%
X146208750Y-103822500D02*
X146843750Y-104457500D01*
X146208750Y-84772500D02*
X147520000Y-83461250D01*
X147518750Y-78371250D02*
X147511250Y-78371250D01*
X146843750Y-104457500D02*
X146843750Y-122237500D01*
X146050000Y-77787500D02*
X144647500Y-77787500D01*
X147518750Y-83312500D02*
X147518750Y-78371250D01*
X144655000Y-77780000D02*
X144647500Y-77787500D01*
X146920000Y-77780000D02*
X144655000Y-77780000D01*
X147511250Y-78371250D02*
X146920000Y-77780000D01*
X111918750Y-77218750D02*
X112487500Y-77787500D01*
X146843750Y-85407500D02*
X146843750Y-103187500D01*
X146843750Y-103187500D02*
X146208750Y-103822500D01*
X144647500Y-77787500D02*
X112487500Y-77787500D01*
X111918750Y-75882500D02*
X111918750Y-77218750D01*
X146843750Y-77787500D02*
X146050000Y-77787500D01*
X146208750Y-84772500D02*
X146843750Y-85407500D01*
X146843750Y-122237500D02*
X146208750Y-122872500D01*
%TD*%
M02*
