M48
; DRILL file {KiCad (6.99.0-3975-g9eb3854794)} date Wednesday, October 19, 2022 at 06:21:51 PM
; FORMAT={-:-/ absolute / inch / decimal}
; #@! TF.CreationDate,2022-10-19T18:21:51+02:00
; #@! TF.GenerationSoftware,Kicad,Pcbnew,(6.99.0-3975-g9eb3854794)
; #@! TF.FileFunction,NonPlated,1,2,NPTH
FMAT,2
INCH
; #@! TA.AperFunction,NonPlated,NPTH,ComponentDrill
T1C0.0689
; #@! TA.AperFunction,NonPlated,NPTH,ComponentDrill
T2C0.1570
%
G90
G05
T1
X4.2062Y-3.4375
X4.2062Y-4.1875
X4.2062Y-4.9375
X4.6063Y-3.4375
X4.6063Y-4.1875
X4.6063Y-4.9375
X4.9562Y-3.4375
X4.9562Y-4.1875
X4.9562Y-4.9375
X5.3563Y-3.4375
X5.3563Y-4.1875
X5.3563Y-4.9375
X5.7062Y-3.4375
X5.7062Y-4.1875
X5.7062Y-4.9375
X6.1063Y-3.4375
X6.1063Y-4.1875
X6.1063Y-4.9375
T2
X4.4062Y-3.4375
X4.4062Y-4.1875
X4.4062Y-4.9375
X5.1562Y-3.4375
X5.1562Y-4.1875
X5.1562Y-4.9375
X5.9062Y-3.4375
X5.9062Y-4.1875
X5.9062Y-4.9375
T0
M30
