%TF.GenerationSoftware,KiCad,Pcbnew,(6.99.0-3975-g9eb3854794)*%
%TF.CreationDate,2022-10-21T11:16:23+02:00*%
%TF.ProjectId,PCB Template,50434220-5465-46d7-906c-6174652e6b69,rev?*%
%TF.SameCoordinates,Original*%
%TF.FileFunction,Soldermask,Bot*%
%TF.FilePolarity,Negative*%
%FSLAX46Y46*%
G04 Gerber Fmt 4.6, Leading zero omitted, Abs format (unit mm)*
G04 Created by KiCad (PCBNEW (6.99.0-3975-g9eb3854794)) date 2022-10-21 11:16:23*
%MOMM*%
%LPD*%
G01*
G04 APERTURE LIST*
G04 Aperture macros list*
%AMRoundRect*
0 Rectangle with rounded corners*
0 $1 Rounding radius*
0 $2 $3 $4 $5 $6 $7 $8 $9 X,Y pos of 4 corners*
0 Add a 4 corners polygon primitive as box body*
4,1,4,$2,$3,$4,$5,$6,$7,$8,$9,$2,$3,0*
0 Add four circle primitives for the rounded corners*
1,1,$1+$1,$2,$3*
1,1,$1+$1,$4,$5*
1,1,$1+$1,$6,$7*
1,1,$1+$1,$8,$9*
0 Add four rect primitives between the rounded corners*
20,1,$1+$1,$2,$3,$4,$5,0*
20,1,$1+$1,$4,$5,$6,$7,0*
20,1,$1+$1,$6,$7,$8,$9,0*
20,1,$1+$1,$8,$9,$2,$3,0*%
%AMHorizOval*
0 Thick line with rounded ends*
0 $1 width*
0 $2 $3 position (X,Y) of the first rounded end (center of the circle)*
0 $4 $5 position (X,Y) of the second rounded end (center of the circle)*
0 Add line between two ends*
20,1,$1,$2,$3,$4,$5,0*
0 Add two circle primitives to create the rounded ends*
1,1,$1,$2,$3*
1,1,$1,$4,$5*%
G04 Aperture macros list end*
%ADD10C,1.750000*%
%ADD11C,3.987800*%
%ADD12HorizOval,2.250000X0.655001X0.730000X-0.655001X-0.730000X0*%
%ADD13C,2.250000*%
%ADD14HorizOval,2.250000X0.020000X0.290000X-0.020000X-0.290000X0*%
%ADD15C,3.500000*%
%ADD16C,3.500001*%
%ADD17RoundRect,0.150000X-0.150000X-0.625000X0.150000X-0.625000X0.150000X0.625000X-0.150000X0.625000X0*%
%ADD18RoundRect,0.250000X-0.350000X-0.650000X0.350000X-0.650000X0.350000X0.650000X-0.350000X0.650000X0*%
%ADD19R,1.200000X0.900000*%
%ADD20RoundRect,0.250000X0.250000X0.475000X-0.250000X0.475000X-0.250000X-0.475000X0.250000X-0.475000X0*%
%ADD21RoundRect,0.250000X0.475000X-0.250000X0.475000X0.250000X-0.475000X0.250000X-0.475000X-0.250000X0*%
%ADD22RoundRect,0.250000X-0.250000X-0.475000X0.250000X-0.475000X0.250000X0.475000X-0.250000X0.475000X0*%
%ADD23RoundRect,0.250000X-0.475000X0.250000X-0.475000X-0.250000X0.475000X-0.250000X0.475000X0.250000X0*%
%ADD24RoundRect,0.250000X-0.262500X-0.450000X0.262500X-0.450000X0.262500X0.450000X-0.262500X0.450000X0*%
%ADD25R,1.500000X0.550000*%
%ADD26RoundRect,0.062500X-0.475000X-0.062500X0.475000X-0.062500X0.475000X0.062500X-0.475000X0.062500X0*%
%ADD27R,0.550000X1.500000*%
%ADD28RoundRect,0.062500X-0.062500X-0.475000X0.062500X-0.475000X0.062500X0.475000X-0.062500X0.475000X0*%
%ADD29RoundRect,0.055000X-0.055000X-0.482500X0.055000X-0.482500X0.055000X0.482500X-0.055000X0.482500X0*%
%ADD30R,5.200000X5.200000*%
%ADD31RoundRect,0.250000X0.262500X0.450000X-0.262500X0.450000X-0.262500X-0.450000X0.262500X-0.450000X0*%
%ADD32R,1.700000X1.700000*%
%ADD33O,1.700000X1.700000*%
%ADD34RoundRect,0.250000X-0.450000X0.262500X-0.450000X-0.262500X0.450000X-0.262500X0.450000X0.262500X0*%
%ADD35R,1.400000X1.200000*%
G04 APERTURE END LIST*
D10*
%TO.C,MX4*%
X106838750Y-106362500D03*
D11*
X111918750Y-106362500D03*
D10*
X116998750Y-106362500D03*
D12*
X108763750Y-103092499D03*
D13*
X109418750Y-102362500D03*
D14*
X114438749Y-101572499D03*
D13*
X114458750Y-101282500D03*
%TD*%
D15*
%TO.C,REF\u002A\u002A*%
X147020000Y-60380000D03*
X147020000Y-72880000D03*
D16*
X161020000Y-60380000D03*
D15*
X161020000Y-72880000D03*
%TD*%
D10*
%TO.C,MX9*%
X144938750Y-125412500D03*
D11*
X150018750Y-125412500D03*
D10*
X155098750Y-125412500D03*
D12*
X146863750Y-122142499D03*
D13*
X147518750Y-121412500D03*
D14*
X152538749Y-120622499D03*
D13*
X152558750Y-120332500D03*
%TD*%
D10*
%TO.C,MX7*%
X106838750Y-125412500D03*
D11*
X111918750Y-125412500D03*
D10*
X116998750Y-125412500D03*
D12*
X108763750Y-122142499D03*
D13*
X109418750Y-121412500D03*
D14*
X114438749Y-120622499D03*
D13*
X114458750Y-120332500D03*
%TD*%
D10*
%TO.C,MX5*%
X125888750Y-106362500D03*
D11*
X130968750Y-106362500D03*
D10*
X136048750Y-106362500D03*
D12*
X127813750Y-103092499D03*
D13*
X128468750Y-102362500D03*
D14*
X133488749Y-101572499D03*
D13*
X133508750Y-101282500D03*
%TD*%
D10*
%TO.C,MX3*%
X144938750Y-87312500D03*
D11*
X150018750Y-87312500D03*
D10*
X155098750Y-87312500D03*
D12*
X146863750Y-84042499D03*
D13*
X147518750Y-83312500D03*
D14*
X152538749Y-82522499D03*
D13*
X152558750Y-82232500D03*
%TD*%
D10*
%TO.C,MX6*%
X144938750Y-106362500D03*
D11*
X150018750Y-106362500D03*
D10*
X155098750Y-106362500D03*
D12*
X146863750Y-103092499D03*
D13*
X147518750Y-102362500D03*
D14*
X152538749Y-101572499D03*
D13*
X152558750Y-101282500D03*
%TD*%
D10*
%TO.C,MX8*%
X125888750Y-125412500D03*
D11*
X130968750Y-125412500D03*
D10*
X136048750Y-125412500D03*
D12*
X127813750Y-122142499D03*
D13*
X128468750Y-121412500D03*
D14*
X133488749Y-120622499D03*
D13*
X133508750Y-120332500D03*
%TD*%
D10*
%TO.C,MX1*%
X106838750Y-87312500D03*
D11*
X111918750Y-87312500D03*
D10*
X116998750Y-87312500D03*
D12*
X108763750Y-84042499D03*
D13*
X109418750Y-83312500D03*
D14*
X114438749Y-82522499D03*
D13*
X114458750Y-82232500D03*
%TD*%
D10*
%TO.C,MX2*%
X125888750Y-87312500D03*
D11*
X130968750Y-87312500D03*
D10*
X136048750Y-87312500D03*
D12*
X127813750Y-84042499D03*
D13*
X128468750Y-83312500D03*
D14*
X133488749Y-82522499D03*
D13*
X133508750Y-82232500D03*
%TD*%
D17*
%TO.C,J2*%
X108150000Y-66980000D03*
X109150000Y-66980000D03*
X110150000Y-66980000D03*
X111150000Y-66980000D03*
D18*
X106850000Y-63105000D03*
X112450000Y-63105000D03*
%TD*%
D19*
%TO.C,D6*%
X159538749Y-109362499D03*
X159538749Y-106062499D03*
%TD*%
D20*
%TO.C,C3*%
X123890000Y-67672500D03*
X121990000Y-67672500D03*
%TD*%
D21*
%TO.C,C2*%
X132550000Y-59402500D03*
X132550000Y-57502500D03*
%TD*%
D19*
%TO.C,D5*%
X140488749Y-109362499D03*
X140488749Y-106062499D03*
%TD*%
D22*
%TO.C,C7*%
X125440000Y-75692500D03*
X127340000Y-75692500D03*
%TD*%
D23*
%TO.C,C1*%
X126390000Y-57502500D03*
X126390000Y-59402500D03*
%TD*%
D20*
%TO.C,C6*%
X137340000Y-75692500D03*
X135440000Y-75692500D03*
%TD*%
D24*
%TO.C,R3*%
X122007500Y-71822500D03*
X123832500Y-71822500D03*
%TD*%
D25*
%TO.C,U1*%
X125689999Y-72009999D03*
D26*
X128052500Y-70510000D03*
D25*
X125689999Y-71209999D03*
D26*
X128052500Y-70010000D03*
D25*
X125689999Y-70409999D03*
D26*
X128052500Y-69510000D03*
D25*
X125689999Y-69609999D03*
D26*
X128052500Y-69010000D03*
D25*
X125689999Y-68809999D03*
D26*
X128052500Y-68510000D03*
D25*
X125689999Y-68009999D03*
D26*
X128052500Y-68010000D03*
D25*
X125689999Y-67209999D03*
D26*
X128052500Y-67510000D03*
D25*
X125689999Y-66409999D03*
D26*
X128052500Y-67010000D03*
D25*
X125689999Y-65609999D03*
D26*
X128052500Y-66510000D03*
D25*
X125689999Y-64809999D03*
D26*
X128052500Y-66010000D03*
D25*
X125689999Y-64009999D03*
D26*
X128052500Y-65510000D03*
D27*
X127389999Y-62309999D03*
D28*
X128890000Y-64672500D03*
D27*
X128189999Y-62309999D03*
D28*
X129390000Y-64672500D03*
D27*
X128989999Y-62309999D03*
D28*
X129890000Y-64672500D03*
D27*
X129789999Y-62309999D03*
D28*
X130390000Y-64672500D03*
D27*
X130589999Y-62309999D03*
D28*
X130890000Y-64672500D03*
D27*
X131389999Y-62309999D03*
D28*
X131390000Y-64672500D03*
X131890000Y-64672500D03*
D27*
X132189999Y-62309999D03*
D28*
X132390000Y-64672500D03*
D27*
X132989999Y-62309999D03*
D28*
X132890000Y-64672500D03*
D27*
X133789999Y-62309999D03*
D28*
X133390000Y-64672500D03*
D27*
X134589999Y-62309999D03*
D28*
X133890000Y-64672500D03*
D27*
X135389999Y-62309999D03*
D26*
X134727500Y-65510000D03*
D25*
X137089999Y-64009999D03*
D26*
X134727500Y-66010000D03*
D25*
X137089999Y-64809999D03*
D26*
X134727500Y-66510000D03*
D25*
X137089999Y-65609999D03*
D26*
X134727500Y-67010000D03*
D25*
X137089999Y-66409999D03*
D26*
X134727500Y-67510000D03*
D25*
X137089999Y-67209999D03*
D26*
X134727500Y-68010000D03*
D25*
X137089999Y-68009999D03*
D26*
X134727500Y-68510000D03*
D25*
X137089999Y-68809999D03*
D26*
X134727500Y-69010000D03*
D25*
X137089999Y-69609999D03*
D26*
X134727500Y-69510000D03*
D25*
X137089999Y-70409999D03*
D26*
X134727500Y-70010000D03*
D25*
X137089999Y-71209999D03*
D26*
X134727500Y-70510000D03*
D25*
X137089999Y-72009999D03*
D28*
X133890000Y-71347500D03*
D27*
X135389999Y-73709999D03*
D28*
X133390000Y-71347500D03*
D27*
X134589999Y-73709999D03*
D28*
X132890000Y-71347500D03*
D27*
X133789999Y-73709999D03*
D28*
X132390000Y-71347500D03*
D27*
X132989999Y-73709999D03*
D28*
X131890000Y-71347500D03*
D27*
X132189999Y-73709999D03*
D28*
X131390000Y-71347500D03*
D27*
X131389999Y-73709999D03*
X130589999Y-73709999D03*
D28*
X130890000Y-71347500D03*
D27*
X129789999Y-73709999D03*
D28*
X130390000Y-71347500D03*
D27*
X128989999Y-73709999D03*
D28*
X129890000Y-71347500D03*
D27*
X128189999Y-73709999D03*
D29*
X129390000Y-71347500D03*
D27*
X127389999Y-73709999D03*
D28*
X128890000Y-71347500D03*
D30*
X131389999Y-68009999D03*
%TD*%
D19*
%TO.C,D7*%
X121438749Y-128412499D03*
X121438749Y-125112499D03*
%TD*%
%TO.C,D4*%
X121438749Y-109362499D03*
X121438749Y-106062499D03*
%TD*%
D31*
%TO.C,R2*%
X123832500Y-69922500D03*
X122007500Y-69922500D03*
%TD*%
D19*
%TO.C,D2*%
X140488749Y-90312499D03*
X140488749Y-87012499D03*
%TD*%
D32*
%TO.C,J1*%
X101369999Y-63504999D03*
D33*
X103909999Y-63504999D03*
X101369999Y-66044999D03*
X103909999Y-66044999D03*
X101369999Y-68584999D03*
X103909999Y-68584999D03*
%TD*%
D19*
%TO.C,D8*%
X140488749Y-128412499D03*
X140488749Y-125112499D03*
%TD*%
D34*
%TO.C,R4*%
X139040000Y-72120000D03*
X139040000Y-73945000D03*
%TD*%
D19*
%TO.C,D9*%
X159538749Y-128412499D03*
X159538749Y-125112499D03*
%TD*%
D21*
%TO.C,C5*%
X139110000Y-63952500D03*
X139110000Y-62052500D03*
%TD*%
D19*
%TO.C,D1*%
X121438749Y-90312499D03*
X121438749Y-87012499D03*
%TD*%
%TO.C,D3*%
X159538749Y-90312499D03*
X159538749Y-87012499D03*
%TD*%
D35*
%TO.C,Y1*%
X130569999Y-59302499D03*
X128369999Y-59302499D03*
X128369999Y-57602499D03*
X130569999Y-57602499D03*
%TD*%
D21*
%TO.C,C4*%
X124210000Y-59432500D03*
X124210000Y-57532500D03*
%TD*%
M02*
