M48
; DRILL file {KiCad (6.99.0-3975-g9eb3854794)} date Thursday, October 20, 2022 at 05:26:06 PM
; FORMAT={-:-/ absolute / inch / decimal}
; #@! TF.CreationDate,2022-10-20T17:26:06+02:00
; #@! TF.GenerationSoftware,Kicad,Pcbnew,(6.99.0-3975-g9eb3854794)
; #@! TF.FileFunction,Plated,1,2,PTH
FMAT,2
INCH
; #@! TA.AperFunction,Plated,PTH,ViaDrill
T1C0.0157
; #@! TA.AperFunction,Plated,PTH,ComponentDrill
T2C0.0394
; #@! TA.AperFunction,Plated,PTH,ComponentDrill
T3C0.0579
; #@! TA.AperFunction,Plated,PTH,ComponentDrill
T4C0.0866
%
G90
G05
T1
X4.2146Y-2.6524
X4.9701Y-2.6469
X4.985Y-2.8029
X5.0154Y-2.8599
X5.0803Y-2.482
X5.3299Y-2.8647
X5.3575Y-2.5509
T2
X3.9909Y-2.5002
X3.9909Y-2.6002
X3.9909Y-2.7002
X4.0909Y-2.5002
X4.0909Y-2.6002
X4.0909Y-2.7002
T3
X4.2562Y-3.3375
X4.2562Y-4.0875
X4.2562Y-4.8375
X4.3078Y-3.28
X4.3078Y-4.03
X4.3078Y-4.78
X4.5047Y-3.2603
X4.5047Y-4.0103
X4.5047Y-4.7603
X4.5062Y-3.2375
X4.5062Y-3.9875
X4.5062Y-4.7375
X5.0062Y-3.3375
X5.0062Y-4.0875
X5.0062Y-4.8375
X5.0578Y-3.28
X5.0578Y-4.03
X5.0578Y-4.78
X5.2547Y-3.2603
X5.2547Y-4.0103
X5.2547Y-4.7603
X5.2562Y-3.2375
X5.2562Y-3.9875
X5.2562Y-4.7375
X5.7562Y-3.3375
X5.7562Y-4.0875
X5.7562Y-4.8375
X5.8078Y-3.28
X5.8078Y-4.03
X5.8078Y-4.78
X6.0047Y-3.2603
X6.0047Y-4.0103
X6.0047Y-4.7603
X6.0062Y-3.2375
X6.0062Y-3.9875
X6.0062Y-4.7375
T4
X5.7882Y-2.3772
X5.7882Y-2.8693
X6.3394Y-2.3772
X6.3394Y-2.8693
T0
M30
