M48
; DRILL file {KiCad (6.99.0-3975-g9eb3854794)} date Wednesday, October 19, 2022 at 06:21:51 PM
; FORMAT={-:-/ absolute / inch / decimal}
; #@! TF.CreationDate,2022-10-19T18:21:51+02:00
; #@! TF.GenerationSoftware,Kicad,Pcbnew,(6.99.0-3975-g9eb3854794)
; #@! TF.FileFunction,Plated,1,2,PTH
FMAT,2
INCH
; #@! TA.AperFunction,Plated,PTH,ComponentDrill
T1C0.0433
; #@! TA.AperFunction,Plated,PTH,ComponentDrill
T2C0.0579
%
G90
G05
T1
X4.1063Y-2.3875
X4.1063Y-2.9875
X4.2062Y-2.3875
X4.2062Y-2.9875
X4.3062Y-2.3875
X4.3062Y-2.9875
X4.4062Y-2.3875
X4.4062Y-2.9875
X4.5062Y-2.3875
X4.5062Y-2.4875
X4.5062Y-2.8875
X4.5062Y-2.9875
X4.6063Y-2.3875
X4.6063Y-2.9875
X4.7062Y-2.3875
X4.7062Y-2.9875
X4.8062Y-2.3875
X4.8062Y-2.9875
X4.9062Y-2.3875
X4.9062Y-2.9875
X5.0062Y-2.3875
X5.0062Y-2.9875
X5.1063Y-2.3875
X5.1063Y-2.9875
X5.2062Y-2.3875
X5.2062Y-2.4875
X5.2062Y-2.5875
X5.2062Y-2.6875
X5.2062Y-2.7875
X5.2062Y-2.8875
X5.2062Y-2.9875
T2
X4.2562Y-3.3375
X4.2562Y-4.0875
X4.2562Y-4.8375
X4.3078Y-3.28
X4.3078Y-4.03
X4.3078Y-4.78
X4.5047Y-3.2603
X4.5047Y-4.0103
X4.5047Y-4.7603
X4.5062Y-3.2375
X4.5062Y-3.9875
X4.5062Y-4.7375
X5.0062Y-3.3375
X5.0062Y-4.0875
X5.0062Y-4.8375
X5.0578Y-3.28
X5.0578Y-4.03
X5.0578Y-4.78
X5.2547Y-3.2603
X5.2547Y-4.0103
X5.2547Y-4.7603
X5.2562Y-3.2375
X5.2562Y-3.9875
X5.2562Y-4.7375
X5.7562Y-3.3375
X5.7562Y-4.0875
X5.7562Y-4.8375
X5.8078Y-3.28
X5.8078Y-4.03
X5.8078Y-4.78
X6.0047Y-3.2603
X6.0047Y-4.0103
X6.0047Y-4.7603
X6.0062Y-3.2375
X6.0062Y-3.9875
X6.0062Y-4.7375
T0
M30
